<svg xmlns="http://www.w3.org/2000/svg" xmlns:xlink="http://www.w3.org/1999/xlink" fill="none" version="1.1" width="28" height="28" viewBox="0 0 28 28"><g style="mix-blend-mode:passthrough"><g><g style="mix-blend-mode:passthrough"></g><g style="mix-blend-mode:passthrough"><path d="M4,20.999992597198485L4,10.737012597198486C4,10.068312597198485,4.334204,9.443842597198486,4.890604,9.072912597198487L11.78121,4.479204597198486C13.1248,3.583481597198486,14.8752,3.583481597198486,16.2188,4.479204597198486L23.1094,9.072912597198487C23.6658,9.443842597198486,24,10.068312597198485,24,10.737012597198486L24,20.999992597198485C24,23.209192597198488,22.2091,24.999992597198485,20,24.999992597198485L8,24.999992597198485C5.79086,24.999992597198485,4,23.209192597198488,4,20.999992597198485ZM14,17.34619259719849Q11.374089999999999,17.34619259719849,9.520990000000001,15.556692597198486C9.381170000000001,15.421692597198486,9.194379999999999,15.346192597198486,9,15.346192597198486C8.58579,15.346192597198486,8.25,15.681992597198485,8.25,16.09619259719849C8.25,16.299692597198487,8.33266,16.494392597198484,8.479009999999999,16.635692597198485Q10.768049999999999,18.84619259719849,14,18.84619259719849Q17.2312,18.84619259719849,19.5199,16.636692597198486L19.5199,16.636692597198486C19.667299999999997,16.494392597198484,19.75,16.299692597198487,19.75,16.09619259719849C19.75,15.681992597198485,19.4142,15.346192597198486,19,15.346192597198486C18.8056,15.346192597198486,18.6188,15.421692597198486,18.479,15.556692597198486Q16.6259,17.34619259719849,14,17.34619259719849Z" fill-rule="evenodd" fill="#0E56FF" fill-opacity="1"/></g></g></g></svg>