<svg xmlns="http://www.w3.org/2000/svg" xmlns:xlink="http://www.w3.org/1999/xlink" fill="none" version="1.1" width="28" height="28" viewBox="0 0 28 28"><g style="mix-blend-mode:passthrough"><g><g style="mix-blend-mode:passthrough"></g><g style="mix-blend-mode:passthrough"><path d="M14,26C20.6274,26,26,20.6274,26,14C26,7.37258,20.6274,2,14,2C7.37258,2,2,7.37258,2,14C2,20.6274,7.37258,26,14,26ZM14,17.3462Q11.37409,17.3462,9.520990000000001,15.5567C9.381170000000001,15.4217,9.194379999999999,15.3462,9,15.3462C8.58579,15.3462,8.25,15.682,8.25,16.0962C8.25,16.299599999999998,8.33266,16.4944,8.479009999999999,16.6357Q10.76805,18.8462,14,18.8462Q17.2312,18.8462,19.5199,16.636699999999998L19.5199,16.636699999999998C19.6673,16.4944,19.75,16.299599999999998,19.75,16.0962C19.75,15.682,19.4142,15.3462,19,15.3462C18.8056,15.3462,18.6188,15.4217,18.479,15.5567Q16.6259,17.3462,14,17.3462Z" fill-rule="evenodd" fill="#0E56FF" fill-opacity="1"/></g></g></g></svg>