<svg xmlns="http://www.w3.org/2000/svg" xmlns:xlink="http://www.w3.org/1999/xlink" fill="none" version="1.1" width="28" height="28" viewBox="0 0 28 28"><g style="mix-blend-mode:passthrough"><g><g style="mix-blend-mode:passthrough"></g><g style="mix-blend-mode:passthrough"><path d="M14,26C20.6274,26,26,20.6274,26,14C26,7.37256,20.6274,2,14,2C7.37256,2,2,7.37256,2,14C2,20.6274,7.37256,26,14,26ZM23.7628,10.13501Q24.5,11.99719,24.5,14Q24.5,16.0028,23.7628,17.865000000000002Q22.9623,19.887,21.4246,21.4246Q19.887,22.9623,17.865000000000002,23.7628Q16.0028,24.5,14,24.5Q11.99719,24.5,10.13501,23.7628Q8.11304,22.9623,6.57544,21.4246Q5.03772,19.887,4.23718,17.865000000000002Q3.5,16.0028,3.5,14Q3.5,11.99719,4.23718,10.13501Q5.03772,8.11304,6.57544,6.57544Q8.11304,5.03772,10.13501,4.23718Q11.99719,3.5,14,3.5Q16.0028,3.5,17.865000000000002,4.23718Q19.887,5.03772,21.4246,6.57544Q22.9623,8.11304,23.7628,10.13501ZM14,17.3462Q11.37415,17.3462,9.521,15.5566C9.38123,15.4216,9.19434,15.3462,9,15.3462C8.58582,15.3462,8.25,15.682,8.25,16.0962C8.25,16.2997,8.33264,16.4944,8.479,16.6357Q10.76807,18.8462,14,18.8462Q17.2312,18.8462,19.521,16.6357C19.6674,16.4944,19.75,16.2997,19.75,16.0962C19.75,15.682,19.4142,15.3462,19,15.3462C18.8057,15.3462,18.6188,15.4216,18.479,15.5566Q16.6259,17.3462,14,17.3462Z" fill-rule="evenodd" fill="#9DA1AC" fill-opacity="1"/></g></g></g></svg>